<svg width="90" height="148" viewBox="0 0 90 148" fill="none" xmlns="http://www.w3.org/2000/svg">
<path d="M47.5355 1.46446C45.5829 -0.488152 42.4171 -0.488152 40.4645 1.46446L8.64466 33.2843C6.69204 35.2369 6.69204 38.4027 8.64466 40.3553C10.5973 42.308 13.7631 42.308 15.7157 40.3553L44 12.0711L72.2843 40.3553C74.2369 42.308 77.4027 42.308 79.3553 40.3553C81.308 38.4027 81.308 35.2369 79.3553 33.2843L47.5355 1.46446ZM44 105H49L49 5H44H39L39 105H44Z" fill="white"/>
<rect x="39.5" y="109.478" width="9" height="9" rx="1.5" fill="white" stroke="white"/>
<path d="M3.936 51.7778H20.064C25.312 51.7778 29.248 53.1858 31.872 56.0018C34.496 58.8178 35.808 62.9458 35.808 68.3858V102.37C35.808 107.81 34.496 111.938 31.872 114.754C29.248 117.57 25.312 118.978 20.064 118.978H3.936V51.7778ZM19.872 109.378C21.6 109.378 22.912 108.866 23.808 107.842C24.768 106.818 25.248 105.154 25.248 102.85V67.9058C25.248 65.6018 24.768 63.9378 23.808 62.9138C22.912 61.8898 21.6 61.3778 19.872 61.3778H14.496V109.378H19.872Z" fill="white"/>
<path d="M52.936 51.7778H66.184L76.456 92.0018H76.648V51.7778H86.056V118.978H75.208L62.536 69.9218H62.344V118.978H52.936V51.7778Z" fill="white"/>
</svg>
