<svg width="362" height="148" viewBox="0 0 362 148" fill="none" xmlns="http://www.w3.org/2000/svg">
<path d="M50.936 51.8H67.064C72.312 51.8 76.248 53.208 78.872 56.024C81.496 58.84 82.808 62.968 82.808 68.408V102.392C82.808 107.832 81.496 111.96 78.872 114.776C76.248 117.592 72.312 119 67.064 119H50.936V51.8ZM66.872 109.4C68.6 109.4 69.912 108.888 70.808 107.864C71.768 106.84 72.248 105.176 72.248 102.872V67.928C72.248 65.624 71.768 63.96 70.808 62.936C69.912 61.912 68.6 61.4 66.872 61.4H61.496V109.4H66.872ZM89.936 51.8H118.736V61.4H100.496V79.16H114.992V88.76H100.496V109.4H118.736V119H89.936V51.8ZM122.027 51.8H132.683L139.595 103.928H139.787L146.699 51.8H156.395L146.219 119H132.203L122.027 51.8ZM161.467 51.8H174.715L184.987 92.024H185.179V51.8H194.587V119H183.739L171.067 69.944H170.875V119H161.467V51.8ZM202.436 51.8H231.236V61.4H212.996V79.16H227.492V88.76H212.996V109.4H231.236V119H202.436V51.8ZM251.227 119.96C246.107 119.96 242.235 118.52 239.611 115.64C236.987 112.696 235.675 108.504 235.675 103.064V99.224H245.659V103.832C245.659 108.184 247.483 110.36 251.131 110.36C252.923 110.36 254.267 109.848 255.163 108.824C256.123 107.736 256.603 106.008 256.603 103.64C256.603 100.824 255.963 98.36 254.683 96.248C253.403 94.072 251.035 91.48 247.579 88.472C243.227 84.632 240.187 81.176 238.459 78.104C236.731 74.968 235.867 71.448 235.867 67.544C235.867 62.232 237.211 58.136 239.898 55.256C242.587 52.312 246.491 50.84 251.611 50.84C256.667 50.84 260.475 52.312 263.035 55.256C265.659 58.136 266.971 62.296 266.971 67.736V70.52H256.987V67.064C256.987 64.76 256.539 63.096 255.643 62.072C254.747 60.984 253.435 60.44 251.707 60.44C248.187 60.44 246.427 62.584 246.427 66.872C246.427 69.304 247.067 71.576 248.347 73.688C249.691 75.8 252.091 78.36 255.547 81.368C259.963 85.208 263.003 88.696 264.667 91.832C266.331 94.968 267.163 98.648 267.163 102.872C267.163 108.376 265.787 112.6 263.035 115.544C260.347 118.488 256.411 119.96 251.227 119.96ZM281.473 61.4H270.433V51.8H303.073V61.4H292.033V119H281.473V61.4ZM308.186 51.8H318.746V119H308.186V51.8ZM341.919 119.96C336.735 119.96 332.767 118.488 330.015 115.544C327.263 112.6 325.887 108.44 325.887 103.064V67.736C325.887 62.36 327.263 58.2 330.015 55.256C332.767 52.312 336.735 50.84 341.919 50.84C347.103 50.84 351.071 52.312 353.823 55.256C356.575 58.2 357.951 62.36 357.951 67.736V103.064C357.951 108.44 356.575 112.6 353.823 115.544C351.071 118.488 347.103 119.96 341.919 119.96ZM341.919 110.36C345.567 110.36 347.391 108.152 347.391 103.736V67.064C347.391 62.648 345.567 60.44 341.919 60.44C338.271 60.44 336.447 62.648 336.447 67.064V103.736C336.447 108.152 338.271 110.36 341.919 110.36Z" fill="white"/>
<path d="M40.5355 1.46446C38.5829 -0.488152 35.4171 -0.488152 33.4645 1.46446L1.64466 33.2843C-0.307961 35.2369 -0.307961 38.4027 1.64466 40.3553C3.59728 42.308 6.76311 42.308 8.71573 40.3553L37 12.0711L65.2843 40.3553C67.2369 42.308 70.4027 42.308 72.3553 40.3553C74.308 38.4027 74.308 35.2369 72.3553 33.2843L40.5355 1.46446ZM37 105H42L42 5H37H32L32 105H37Z" fill="white"/>
<rect x="32" y="108.978" width="10" height="10" rx="2" fill="white"/>
</svg>
